<svg xmlns="http://www.w3.org/2000/svg" width="93" height="94" fill="none" viewBox="0 0 93 94"><rect width="31.863" height="41.1" x="30.568" y="28.299" stroke="currentColor" stroke-width="2" rx="5"/><path stroke="currentColor" stroke-width="2" d="M50.6804 19.3368H55.6861V28.181H50.6804V19.3368Z"/><line x1="37.968" x2="37.968" y1="28.181" y2="69.403" stroke="currentColor"/><line x1="51.909" x2="51.909" y1="28.181" y2="69.403" stroke="currentColor"/><line x1="35.907" x2="35.907" y1="28.181" y2="69.403" stroke="currentColor"/><line x1="49.848" x2="49.848" y1="28.181" y2="69.403" stroke="currentColor"/><line x1="40.03" x2="40.03" y1="28.181" y2="69.403" stroke="currentColor"/><line x1="53.97" x2="53.97" y1="28.181" y2="69.403" stroke="currentColor"/><line x1="42.091" x2="42.091" y1="28.181" y2="69.403" stroke="currentColor"/><line x1="56.032" x2="56.032" y1="28.181" y2="69.403" stroke="currentColor"/><line x1="44.152" x2="44.152" y1="28.181" y2="69.403" stroke="currentColor"/><line x1="58.093" x2="58.093" y1="28.181" y2="69.403" stroke="currentColor"/><line x1="50.889" x2="55.686" y1="18.837" y2="18.837" stroke="currentColor"/><line x1="50.889" x2="55.686" y1="24.983" y2="24.983" stroke="currentColor"/></svg>